<svg width="251" height="48" viewBox="0 0 251 48" fill="none" xmlns="http://www.w3.org/2000/svg">
<ellipse cx="23.6066" cy="23.5974" rx="23.6066" ry="23.6065" fill="#8D34FF"/>
<path d="M72.0944 21.8117C72.0944 23.4924 71.5845 24.8522 70.5647 25.8909C69.5449 26.9107 68.2041 27.4206 66.5422 27.4206C65.7679 27.4206 65.1258 27.2884 64.6159 27.024C64.106 26.7407 63.851 26.2969 63.851 25.6926C65.0975 25.6926 65.9945 25.3904 66.5422 24.7861C67.1087 24.1629 67.392 23.1997 67.392 21.8966C67.392 19.5171 66.3911 18.3273 64.3893 18.3273C63.9171 18.3273 63.4261 18.3745 62.9162 18.469V35.0974H58.2138V16.5993C60.65 16.3727 62.7462 16.2594 64.5026 16.2594C66.8632 16.2594 68.714 16.6843 70.0548 17.5342C71.4146 18.3651 72.0944 19.7909 72.0944 21.8117ZM84.3661 30.6783C84.8571 30.9049 85.1026 31.3676 85.1026 32.0663C85.1026 32.8406 84.8476 33.5016 84.3377 34.0493C83.8278 34.597 83.1669 35.0124 82.3548 35.2957C81.5616 35.579 80.7401 35.7206 79.8903 35.7206C77.624 35.7206 75.9055 35.0313 74.7346 33.6527C73.5826 32.2741 73.0066 30.3855 73.0066 27.9871C73.0066 25.5132 73.6298 23.5774 74.8762 22.1799C76.1416 20.7824 77.964 20.0837 80.3435 20.0837C81.8732 20.0837 83.1385 20.433 84.1394 21.1318C85.1404 21.8305 85.6408 22.8598 85.6408 24.2195C85.6408 25.9003 85.0459 27.0617 83.8562 27.7038C82.6664 28.3459 81.0423 28.667 78.9838 28.667C78.3417 28.667 77.8412 28.6387 77.4824 28.582C77.5391 29.9229 77.794 30.9804 78.2473 31.7547C78.7194 32.529 79.5031 32.9162 80.5985 32.9162C81.4105 32.9162 82.1471 32.7273 82.808 32.3496C83.4879 31.953 84.0072 31.3959 84.3661 30.6783ZM79.9186 21.755C79.0121 21.755 78.3795 22.3121 78.0206 23.4263C77.6807 24.5217 77.5013 25.8059 77.4824 27.2789H78.049C79.2387 27.2978 80.1358 27.0806 80.7401 26.6274C81.3633 26.1741 81.6749 25.3999 81.6749 24.3045C81.6749 23.5869 81.5238 22.9825 81.2217 22.4915C80.9384 22.0005 80.504 21.755 79.9186 21.755ZM94.3624 22.4065C93.6825 22.4065 93.2482 22.8315 93.0593 23.6813C92.8705 24.5122 92.776 25.5887 92.776 26.9107V35.0974H88.4419V20.6502L91.9829 20.3103L92.1812 22.8598C92.4833 21.9911 92.9743 21.3112 93.6542 20.8202C94.3341 20.3292 95.1367 20.0837 96.0621 20.0837C97.1385 20.0837 97.9884 20.3953 98.6116 21.0185C99.2537 21.6228 99.5747 22.4538 99.5747 23.5113C99.5747 24.3989 99.3387 25.0788 98.8665 25.5509C98.3944 26.0231 97.724 26.2591 96.8553 26.2591C96.6475 26.2591 96.402 26.2308 96.1187 26.1741C95.8355 26.1175 95.6277 26.0419 95.4955 25.9475C95.6277 25.532 95.6938 25.041 95.6938 24.4745C95.6938 23.0959 95.25 22.4065 94.3624 22.4065ZM102.017 35.494V21.925H100.062V20.6502H102.017L102.102 19.2055C102.196 17.6191 102.782 16.4766 103.858 15.7778C104.935 15.0602 106.37 14.7014 108.164 14.7014C109.486 14.7014 110.638 14.8902 111.62 15.2679C112.602 15.6267 113.093 16.2688 113.093 17.1942C113.093 17.8552 112.838 18.3557 112.328 18.6956C111.818 19.0355 111.176 19.2055 110.402 19.2055C109.779 19.2055 109.335 19.1111 109.071 18.9222C109.184 18.4312 109.241 17.9874 109.241 17.5908C109.241 17.0998 109.137 16.7126 108.929 16.4294C108.721 16.1461 108.4 16.0044 107.966 16.0044C107.286 16.0044 106.842 16.2783 106.634 16.826C106.427 17.3736 106.323 18.1196 106.323 19.0639V20.6502H109.127V21.925H106.351V35.0974L102.017 35.494ZM124.419 32.2646C124.419 32.7934 124.485 33.2561 124.617 33.6527C124.749 34.0493 124.976 34.3987 125.297 34.7008C125.07 34.9652 124.749 35.1635 124.334 35.2957C123.937 35.4468 123.531 35.5223 123.115 35.5223C122.436 35.5223 121.86 35.3807 121.387 35.0974C120.915 34.7953 120.594 34.3703 120.424 33.8227C120.047 34.4648 119.518 34.9369 118.838 35.2391C118.177 35.5601 117.431 35.7206 116.6 35.7206C115.221 35.7206 114.164 35.4279 113.427 34.8425C112.71 34.257 112.228 33.445 111.983 32.4063C111.737 31.3676 111.614 30.0362 111.614 28.412V20.6502H116.005V28.2704C116.005 29.4602 116.033 30.4233 116.09 31.1598C116.166 31.8775 116.345 32.4818 116.628 32.9728C116.931 33.445 117.393 33.681 118.016 33.681C118.734 33.681 119.253 33.3789 119.574 32.7745C119.914 32.1702 120.084 31.4148 120.084 30.5083V20.6502H124.419V32.2646ZM128.333 20.6502L131.874 20.3103L132.073 22.8598C132.79 21.009 134.273 20.0837 136.52 20.0837C137.615 20.0837 138.493 20.2914 139.154 20.7069C139.815 21.1035 140.306 21.7078 140.628 22.5199C141.383 20.8957 142.762 20.0837 144.763 20.0837C146.388 20.0837 147.54 20.5275 148.219 21.4151C148.899 22.3027 149.239 23.6341 149.239 25.4093V32.2646C149.239 32.7934 149.305 33.2561 149.437 33.6527C149.57 34.0493 149.796 34.3987 150.117 34.7008C149.91 34.9652 149.589 35.1635 149.154 35.2957C148.739 35.4468 148.323 35.5223 147.908 35.5223C146.926 35.5223 146.18 35.2768 145.67 34.7858C145.16 34.2759 144.905 33.5299 144.905 32.5479V25.6359C144.905 24.5406 144.801 23.7002 144.593 23.1147C144.386 22.5293 143.914 22.2366 143.177 22.2366C142.308 22.2366 141.732 22.6709 141.449 23.5397C141.185 24.4084 141.052 25.5226 141.052 26.8823V35.0974H136.718V25.6359C136.718 24.5217 136.614 23.6813 136.407 23.1147C136.199 22.5293 135.708 22.2366 134.934 22.2366C134.008 22.2366 133.394 22.6615 133.092 23.5113C132.809 24.3612 132.667 25.4848 132.667 26.8823V35.0974H128.333V20.6502ZM163.586 30.6783C164.077 30.9049 164.323 31.3676 164.323 32.0663C164.323 32.8406 164.068 33.5016 163.558 34.0493C163.048 34.597 162.387 35.0124 161.575 35.2957C160.782 35.579 159.96 35.7206 159.11 35.7206C156.844 35.7206 155.126 35.0313 153.955 33.6527C152.803 32.2741 152.227 30.3855 152.227 27.9871C152.227 25.5132 152.85 23.5774 154.096 22.1799C155.362 20.7824 157.184 20.0837 159.564 20.0837C161.093 20.0837 162.359 20.433 163.36 21.1318C164.361 21.8305 164.861 22.8598 164.861 24.2195C164.861 25.9003 164.266 27.0617 163.076 27.7038C161.887 28.3459 160.262 28.667 158.204 28.667C157.562 28.667 157.061 28.6387 156.703 28.582C156.759 29.9229 157.014 30.9804 157.467 31.7547C157.94 32.529 158.723 32.9162 159.819 32.9162C160.631 32.9162 161.367 32.7273 162.028 32.3496C162.708 31.953 163.227 31.3959 163.586 30.6783ZM159.139 21.755C158.232 21.755 157.6 22.3121 157.241 23.4263C156.901 24.5217 156.721 25.8059 156.703 27.2789H157.269C158.459 27.2978 159.356 27.0806 159.96 26.6274C160.584 26.1741 160.895 25.3999 160.895 24.3045C160.895 23.5869 160.744 22.9825 160.442 22.4915C160.159 22.0005 159.724 21.755 159.139 21.755ZM187.793 16.401V35.0974H183.119V26.769H177.878V35.0974H173.176V16.401H177.878V24.5028H183.119V16.401H187.793ZM197.646 20.0837C199.912 20.0837 201.612 20.7541 202.745 22.0949C203.897 23.4358 204.473 25.296 204.473 27.6755C204.473 30.1306 203.897 32.0852 202.745 33.5394C201.593 34.9935 199.893 35.7206 197.646 35.7206C195.417 35.7206 193.718 35.0219 192.547 33.6244C191.376 32.2269 190.79 30.3383 190.79 27.9588C190.79 25.5415 191.366 23.6246 192.518 22.2082C193.689 20.7919 195.398 20.0837 197.646 20.0837ZM197.646 34.021C198.628 34.021 199.26 33.445 199.544 32.293C199.827 31.141 199.969 29.649 199.969 27.8172C199.969 26.0797 199.817 24.6444 199.515 23.5113C199.213 22.3593 198.59 21.7833 197.646 21.7833C196.701 21.7833 196.078 22.3593 195.776 23.5113C195.474 24.6633 195.323 26.0986 195.323 27.8172C195.323 29.649 195.464 31.141 195.748 32.293C196.031 33.445 196.664 34.021 197.646 34.021ZM220.274 32.2646C220.274 32.7934 220.34 33.2561 220.472 33.6527C220.604 34.0493 220.831 34.3987 221.152 34.7008C220.926 34.9652 220.604 35.1635 220.189 35.2957C219.792 35.4468 219.386 35.5223 218.971 35.5223C218.291 35.5223 217.715 35.3807 217.243 35.0974C216.771 34.7953 216.45 34.3703 216.28 33.8227C215.902 34.4648 215.373 34.9369 214.693 35.2391C214.032 35.5601 213.286 35.7206 212.455 35.7206C211.077 35.7206 210.019 35.4279 209.283 34.8425C208.565 34.257 208.084 33.445 207.838 32.4063C207.593 31.3676 207.47 30.0362 207.47 28.412V20.6502H211.861V28.2704C211.861 29.4602 211.889 30.4233 211.946 31.1598C212.021 31.8775 212.201 32.4818 212.484 32.9728C212.786 33.445 213.249 33.681 213.872 33.681C214.59 33.681 215.109 33.3789 215.43 32.7745C215.77 32.1702 215.94 31.4148 215.94 30.5083V20.6502H220.274V32.2646ZM229.429 21.6417C228.938 21.6417 228.542 21.7833 228.24 22.0666C227.956 22.3499 227.815 22.7276 227.815 23.1997C227.815 23.9174 228.079 24.5122 228.608 24.9844C229.137 25.4565 229.939 25.9758 231.016 26.5424C231.866 27.0145 232.545 27.43 233.055 27.7888C233.565 28.1288 234 28.5726 234.358 29.1202C234.717 29.649 234.897 30.2911 234.897 31.0465C234.897 32.614 234.33 33.7849 233.197 34.5592C232.064 35.3335 230.6 35.7206 228.806 35.7206C227.333 35.7206 226.068 35.4846 225.01 35.0124C223.953 34.5403 223.424 33.7471 223.424 32.6329C223.424 31.9153 223.669 31.377 224.16 31.0182C224.67 30.6594 225.322 30.48 226.115 30.48C226.738 30.48 227.182 30.5744 227.446 30.7633C227.333 31.1787 227.276 31.6225 227.276 32.0947C227.276 32.7368 227.427 33.2467 227.73 33.6244C228.032 33.9832 228.476 34.1626 229.061 34.1626C229.665 34.1626 230.128 33.9926 230.449 33.6527C230.77 33.2939 230.931 32.8029 230.931 32.1796C230.931 31.462 230.666 30.8671 230.138 30.395C229.609 29.9229 228.816 29.4035 227.758 28.837C226.908 28.3837 226.219 27.9777 225.69 27.6189C225.18 27.26 224.746 26.8068 224.387 26.2591C224.028 25.7115 223.849 25.0599 223.849 24.3045C223.849 22.8881 224.415 21.8305 225.548 21.1318C226.682 20.433 228.079 20.0837 229.741 20.0837C231.12 20.0837 232.319 20.3103 233.339 20.7635C234.358 21.2168 234.868 21.9627 234.868 23.0014C234.868 23.6813 234.604 24.2101 234.075 24.5878C233.565 24.9466 232.923 25.126 232.149 25.126C231.922 25.126 231.677 25.1071 231.412 25.0694C231.167 25.0316 230.978 24.9655 230.846 24.8711C230.959 24.38 231.016 23.9268 231.016 23.5113C231.016 22.9448 230.874 22.4915 230.591 22.1516C230.326 21.8117 229.939 21.6417 229.429 21.6417ZM248.542 30.6783C249.033 30.9049 249.279 31.3676 249.279 32.0663C249.279 32.8406 249.024 33.5016 248.514 34.0493C248.004 34.597 247.343 35.0124 246.531 35.2957C245.738 35.579 244.916 35.7206 244.066 35.7206C241.8 35.7206 240.082 35.0313 238.911 33.6527C237.759 32.2741 237.183 30.3855 237.183 27.9871C237.183 25.5132 237.806 23.5774 239.052 22.1799C240.318 20.7824 242.14 20.0837 244.52 20.0837C246.049 20.0837 247.315 20.433 248.316 21.1318C249.316 21.8305 249.817 22.8598 249.817 24.2195C249.817 25.9003 249.222 27.0617 248.032 27.7038C246.842 28.3459 245.218 28.667 243.16 28.667C242.518 28.667 242.017 28.6387 241.658 28.582C241.715 29.9229 241.97 30.9804 242.423 31.7547C242.895 32.529 243.679 32.9162 244.775 32.9162C245.587 32.9162 246.323 32.7273 246.984 32.3496C247.664 31.953 248.183 31.3959 248.542 30.6783ZM244.095 21.755C243.188 21.755 242.556 22.3121 242.197 23.4263C241.857 24.5217 241.677 25.8059 241.658 27.2789H242.225C243.415 27.2978 244.312 27.0806 244.916 26.6274C245.539 26.1741 245.851 25.3999 245.851 24.3045C245.851 23.5869 245.7 22.9825 245.398 22.4915C245.114 22.0005 244.68 21.755 244.095 21.755Z" fill="black"/>
<path d="M10.5816 32.9909V15.9942H17.6872C21.1338 15.9942 23.636 18.3312 23.636 21.6126C23.636 24.9411 21.0865 27.2545 17.6872 27.2545H14.0046V32.9909H10.5816ZM14.0046 24.3509H17.1915C19.0328 24.3509 20.0715 23.3122 20.0715 21.6362C20.0715 19.9601 19.0328 18.9686 17.1915 18.9686H14.0046V24.3509ZM29.6282 30.0165H37.9141V32.9909H25.3318V30.3942L33.665 18.9686H25.5679V15.9942H37.7961V18.5909L29.6282 30.0165Z" fill="#FEFEFF"/>
</svg>
